<svg width="52" height="52" viewBox="0 0 52 52" fill="none" xmlns="http://www.w3.org/2000/svg">
<path d="M47.6224 4.37754C47.352 4.10692 46.9749 3.97023 46.5941 4.00545C46.4351 4.01989 42.6411 4.38072 37.4378 6.12723C20.5036 11.3426 9.29627 27.7628 4.08474 39.6415C3.7567 40.4259 4.41948 41.4759 5.41151 41.3891L11.1678 40.8291L10.6078 46.5849C10.5465 47.4123 11.3497 48.2837 12.3555 47.9116C33.0348 38.4891 45.6483 24.0671 47.9947 5.40583C48.0294 5.0248 47.8931 4.64799 47.6224 4.37754ZM30.9597 32.7069C28.6747 34.7864 26.4223 36.574 24.3403 38.0798V16.1341C26.5228 14.3454 28.7848 12.8957 30.9597 11.7252V32.7069ZM18.3821 41.9794C16.3358 43.1817 14.6086 44.0592 13.387 44.6383L13.885 39.5196C13.9589 38.8536 13.3427 38.0111 12.4774 38.1122L7.36042 38.6099C9.08912 34.9423 13.7449 26.4028 21.7627 18.4555V39.8653C20.5271 40.6844 19.3872 41.3889 18.3821 41.9794ZM43.405 13.8128C41.8914 18.2983 38.9521 24.7742 33.5372 30.2415V10.4412C37.0645 8.73768 42.4534 7.21067 45.194 6.80577C44.9314 8.3448 44.4041 10.8517 43.405 13.8128Z" fill="black"/>
</svg>
